<svg width="1134" height="957" viewBox="0 0 1134 957" fill="none" xmlns="http://www.w3.org/2000/svg">
<path d="M431.332 615.91L666.447 607.152C679.472 657.454 718.595 755.923 714.952 764.12C709.563 776.246 428.515 788.372 415.837 772.878C409.1 759.404 418.757 665.313 431.332 615.91Z" fill="black" stroke="#173441" stroke-width="14"/>
<path d="M698.792 736.499C671.171 744.583 474.455 756.036 423.256 743.909C422.582 753.341 423.256 762.772 423.929 766.141C467.719 776.92 673.192 766.141 704.855 758.057C704.855 756.44 700.813 743.011 698.792 736.499Z" fill="#60CAC8"/>
<path d="M599.209 615.334C596.963 655.979 594.763 744.546 603.925 773.649M501.525 619.376C499.279 660.022 497.079 748.588 506.241 777.691" stroke="#153340"/>
<path d="M659.324 530.718L659.432 530.873C686.935 570.316 713.948 604.116 725.742 615.911C742.345 607.834 779.614 586.032 787.721 548.542C776.942 539.111 734.47 507.563 709.364 488.386L659.324 530.718Z" fill="#598E9C"/>
<path d="M645.072 443.176C625.549 439.406 593.905 441.628 623.512 480.672C634.864 495.643 647.138 513.242 659.324 530.718L709.364 488.386C696.979 478.926 688.299 472.135 688.299 472.135C688.299 472.135 658.092 449.162 645.072 443.176Z" fill="#FEE5CF"/>
<path d="M725.742 615.911C745.279 635.447 762.795 643.195 774.248 641.51C788.731 639.38 817.249 616.671 815.342 595.7C814.669 588.29 805.911 566.732 787.721 548.542C779.614 586.032 742.345 607.834 725.742 615.911Z" fill="#FEE5CF"/>
<path d="M725.742 615.911C745.279 635.447 762.795 643.195 774.248 641.51C788.731 639.38 817.249 616.671 815.342 595.7C814.669 588.29 805.911 566.732 787.721 548.542M725.742 615.911C742.345 607.834 779.614 586.032 787.721 548.542M725.742 615.911C713.948 604.116 686.935 570.316 659.432 530.873M787.721 548.542C776.942 539.111 734.47 507.563 709.364 488.386M659.324 530.718C647.138 513.242 634.864 495.643 623.512 480.672C593.905 441.628 625.549 439.406 645.072 443.176C658.092 449.162 688.299 472.135 688.299 472.135C688.299 472.135 696.979 478.926 709.364 488.386M659.324 530.718L709.364 488.386M659.324 530.718L659.432 530.873M659.324 530.718C659.36 530.77 659.396 530.821 659.432 530.873" stroke="#173441" stroke-width="14"/>
<path d="M351.096 171.106C178.232 447.334 247.151 622.225 258.629 640.029C275.729 666.553 288.596 677.595 298.552 684.338C323.014 699.621 369.719 730.594 360.845 732.212C351.97 733.83 261.574 718.951 217.485 711.309C205.539 707.938 180.963 700.116 178.232 695.8C175.502 691.485 175.388 694.452 175.672 696.475L176.526 727.492C175.388 728.391 172.43 730.189 169.699 730.189C166.968 730.189 150.926 726.593 143.246 724.795C1.93434 669.234 -6.49928 587.281 17.1963 542.835C105.696 376.835 149.745 315.292 169.699 180.834C178.232 123.334 227.196 54 305.496 54C305.496 54 366.55 56.555 434.696 72.0163C415.063 108.549 351.096 171.106 351.096 171.106Z" fill="#60CAC8" stroke="#173441" stroke-width="14"/>
<path d="M434.5 40L353 345L287.5 327L374.499 28L434.5 40Z" fill="#FF66CC" stroke="#173441" stroke-width="14"/>
<path d="M782.6 159.106C955.464 435.334 886.545 610.225 875.067 628.029C857.967 654.553 845.1 665.595 835.145 672.338C810.683 687.621 763.977 718.594 772.852 720.212C781.726 721.83 872.122 706.951 916.211 699.309C928.157 695.938 952.733 688.116 955.464 683.8C958.195 679.485 958.308 682.452 958.024 684.475L957.171 715.492C958.308 716.391 961.267 718.189 963.997 718.189C966.728 718.189 982.771 714.593 990.451 712.795C1131.76 657.234 1140.2 575.281 1116.5 530.835C1028 364.835 983.952 303.292 963.997 168.834C955.464 111.334 906.5 42 828.2 42C828.2 42 767.146 44.555 699 60.0163C718.634 96.5493 782.6 159.106 782.6 159.106Z" fill="#60CAC8" stroke="#173441" stroke-width="14"/>
<path d="M689.5 37.5L770 307L840.5 289L759 16.5L689.5 37.5Z" fill="#FF66CC" stroke="#173441" stroke-width="14"/>
<path d="M506.12 502.058C526.106 467.251 549.909 407.338 485.236 446.142C465.273 458.12 446.461 466.647 428.647 472.839C436.768 496.446 451.341 544.387 444.875 547.864C474.108 532.907 495.936 513.716 506.12 502.058Z" fill="#FEE5CF"/>
<path d="M289.195 495.994C246.618 503.54 273.7 564.036 289.195 568.752C297.953 570.773 300.966 572.656 324.226 572.28C315.603 554.623 313.896 511.833 314.121 492.646C305.586 493.531 297.289 494.56 289.195 495.994Z" fill="#FEE5CF"/>
<path d="M376.773 568.752C401.958 566.147 425.074 557.987 444.815 547.894C444.835 547.885 444.855 547.874 444.875 547.864C451.341 544.387 436.768 496.446 428.647 472.839C385.291 487.909 347.847 489.15 314.121 492.646C313.896 511.833 315.603 554.623 324.226 572.28C337.203 572.071 354.385 571.068 376.773 568.752Z" fill="#598E9C"/>
<path d="M428.647 472.839C446.461 466.647 465.273 458.12 485.236 446.142C549.909 407.338 526.106 467.251 506.12 502.058C495.936 513.716 474.108 532.907 444.875 547.864M428.647 472.839C385.291 487.909 347.847 489.15 314.121 492.646M428.647 472.839C436.768 496.446 451.341 544.387 444.875 547.864M314.121 492.646C305.586 493.531 297.289 494.56 289.195 495.994C246.618 503.54 273.7 564.036 289.195 568.752C297.953 570.773 300.966 572.656 324.226 572.28M314.121 492.646C313.896 511.833 315.603 554.623 324.226 572.28M324.226 572.28C337.203 572.071 354.385 571.068 376.773 568.752C401.958 566.147 425.074 557.987 444.815 547.894C444.835 547.885 444.855 547.874 444.875 547.864" stroke="#173441" stroke-width="14"/>
<path fill-rule="evenodd" clip-rule="evenodd" d="M100.919 437.015L112.703 613.126C114.273 619.772 121.088 633.495 135.787 635.213C150.486 636.93 242.29 629.212 286.355 625.138C292.972 623.12 305.954 615.319 304.946 600.262L297.165 483.976C296.791 481.75 295.174 476.412 291.696 472.863C288.217 469.315 245.483 428.017 224.55 407.812C223.803 406.736 220.283 404.586 212.181 404.588C204.079 404.59 146.517 408.757 118.748 410.84C112.326 412.395 99.768 419.807 100.919 437.015ZM124.668 428.674C120.366 428.962 119.56 433.067 119.695 435.083C123.787 492.875 132.016 609.132 132.196 611.821C132.376 614.51 136.514 615.808 138.561 616.122L281.063 606.587C285.902 606.263 286.812 601.701 286.662 599.46L279.511 492.584C279.295 489.357 277.001 488.701 275.88 488.776L233.533 491.609C223.28 491.755 218.415 484.293 217.264 480.544L213.396 422.737L124.668 428.674ZM236.352 473.19L234.373 443.614L263.239 471.391L236.352 473.19Z" fill="#153340"/>
<path d="M119.695 435.083C119.56 433.067 120.366 428.962 124.668 428.674L213.396 422.737L217.264 480.544C218.415 484.293 223.28 491.755 233.533 491.609L275.88 488.776C277.001 488.701 279.295 489.357 279.511 492.584L286.662 599.46C286.812 601.701 285.902 606.263 281.063 606.587L138.561 616.122C136.514 615.808 132.376 614.51 132.196 611.821C132.016 609.132 123.787 492.875 119.695 435.083Z" fill="#F8CF63"/>
<path d="M234.373 443.614L236.352 473.19L263.239 471.391L234.373 443.614Z" fill="#FACD62"/>
<path d="M272.912 497.634C256.307 501.796 258.946 531.635 278.441 530.352C278.441 530.352 300.908 529.772 314.787 528.331C313.981 521.594 313.981 510.142 313.981 493.299C296.503 494.45 272.912 497.634 272.912 497.634Z" fill="#FEE5CF"/>
<path d="M278.441 530.352C258.946 531.635 256.307 501.796 272.912 497.634C272.912 497.634 296.503 494.45 313.981 493.299C313.981 510.142 313.981 521.594 314.787 528.331M278.441 530.352C297.936 529.068 295.444 531.08 314.787 528.331M278.441 530.352C278.441 530.352 300.908 529.772 314.787 528.331" stroke="#173441" stroke-width="14"/>
<path d="M555.985 431.994L521.825 476.457C521.825 476.457 525.67 485.552 530.385 491.278C531.194 492.26 532.052 493.157 532.952 493.973C542.555 502.666 556.967 501.98 567.438 493.973C575.808 487.572 578.735 481.808 579.825 479.661C579.928 479.458 580.015 479.288 580.088 479.152L555.985 431.994Z" fill="#60CAC8"/>
<path d="M567.438 493.973C556.967 501.98 542.555 502.666 532.952 493.973L498.194 614.06C498.103 614.374 498.171 614.713 498.377 614.967L522.476 644.762L534.18 659.233L534.417 659.526C534.785 659.981 535.464 660.024 535.886 659.62L536.159 659.358L553.986 642.285L582.568 614.911C582.797 614.691 582.909 614.376 582.868 614.061L567.438 493.973Z" fill="#60CAC8"/>
<path d="M632.785 431.994H555.985L580.088 479.152L586.344 491.392C586.655 491.999 587.468 492.125 587.947 491.639L635.449 443.447L632.785 431.994Z" fill="#598E9C"/>
<path d="M496.701 431.994C494.283 437.625 491.699 443.724 489 450.183L512.77 486.068C513.149 486.64 513.978 486.669 514.397 486.125L521.825 476.457L555.985 431.994H496.701Z" fill="#598E9C"/>
<path d="M489 450.183C458.126 524.089 412.304 645.209 428.659 653.635C446.198 662.67 487.451 667.643 506.682 669.071C506.746 669.076 506.811 669.081 506.875 669.086C507.247 669.113 507.603 668.931 507.798 668.613L507.909 668.434L522.476 644.762L498.377 614.967C498.171 614.713 498.103 614.374 498.194 614.06L532.952 493.973C532.052 493.157 531.194 492.26 530.385 491.278C525.67 485.552 521.825 476.457 521.825 476.457L514.397 486.125C513.978 486.669 513.149 486.64 512.77 486.068L489 450.183Z" fill="#598E9C"/>
<path d="M635.449 443.447L587.947 491.639C587.468 492.125 586.655 491.999 586.344 491.392L580.088 479.152C580.015 479.288 579.928 479.458 579.825 479.661C578.735 481.808 575.808 487.572 567.438 493.973L582.868 614.061C582.909 614.376 582.797 614.691 582.568 614.911L553.986 642.285L568.391 668.414L568.492 668.598C568.672 668.925 569.019 669.125 569.392 669.114C569.461 669.112 569.53 669.11 569.598 669.108C614.672 667.721 667.452 639.23 677.564 626.483C677.591 626.449 677.618 626.414 677.645 626.38C677.824 626.15 677.884 625.851 677.818 625.567L677.782 625.412L635.449 443.447Z" fill="#598E9C"/>
<path d="M489 450.183C458.126 524.089 412.304 645.209 428.659 653.635C446.198 662.67 487.451 667.643 506.682 669.071C506.746 669.076 506.811 669.081 506.875 669.086C507.247 669.113 507.603 668.931 507.798 668.613L507.909 668.434L522.476 644.762M489 450.183C491.699 443.724 494.283 437.625 496.701 431.994H555.985M489 450.183L512.77 486.068C513.149 486.64 513.978 486.669 514.397 486.125L521.825 476.457M555.985 431.994H632.785L635.449 443.447M555.985 431.994L521.825 476.457M555.985 431.994L580.088 479.152M635.449 443.447L587.947 491.639C587.468 492.125 586.655 491.999 586.344 491.392L580.088 479.152M635.449 443.447L677.782 625.412L677.818 625.567C677.884 625.851 677.824 626.15 677.645 626.38C677.618 626.414 677.591 626.449 677.564 626.483C667.452 639.23 614.672 667.721 569.598 669.108C569.53 669.11 569.461 669.112 569.392 669.114C569.019 669.125 568.672 668.925 568.492 668.598L568.391 668.414L553.986 642.285M521.825 476.457C521.825 476.457 525.67 485.552 530.385 491.278C531.194 492.26 532.052 493.157 532.952 493.973M567.438 493.973C556.967 501.98 542.555 502.666 532.952 493.973M567.438 493.973L582.868 614.061C582.909 614.376 582.797 614.691 582.568 614.911L553.986 642.285M567.438 493.973C575.808 487.572 578.735 481.808 579.825 479.661C579.928 479.458 580.015 479.288 580.088 479.152M532.952 493.973L498.194 614.06C498.103 614.374 498.171 614.713 498.377 614.967L522.476 644.762M553.986 642.285L536.159 659.358L535.886 659.62C535.464 660.024 534.785 659.981 534.417 659.526L534.18 659.233L522.476 644.762" stroke="#173441" stroke-width="14"/>
<path d="M539.131 441.426C462.062 438.731 414.949 414.254 401.026 402.352C332.311 395.616 266.964 70.2276 582.246 87.7433C834.472 101.756 782.105 294.788 724.393 389.552C694.751 407.966 616.2 444.121 539.131 441.426Z" fill="#FEE5CF" stroke="#173441" stroke-width="14"/>
<ellipse cx="451.567" cy="306.017" rx="22.2314" ry="30.9893" fill="#173441"/>
<ellipse cx="632.101" cy="306.017" rx="22.2314" ry="30.9893" fill="#173441"/>
<path d="M504.106 371.363C500.872 358.429 513.537 355.195 518.253 363.279C522.969 368.668 522.969 367.995 527.685 371.363C535.095 374.732 545.2 374.058 551.937 372.037C558 368.668 555.979 369.342 563.39 361.258C570.396 356.408 575.292 361.034 576.864 363.953C577.762 366.423 577.403 373.789 568.779 383.49C560.156 393.191 540.934 393.37 532.401 392.247C524.316 390.676 507.339 384.298 504.106 371.363Z" fill="#173441"/>
<path d="M347.365 244.136C330.074 244.809 308.348 262.962 313.738 304.461C319.801 323.324 344.727 394.734 411.421 418.313L401.974 415.265C419.473 421.322 434.927 426.672 414.059 386.282C393.175 345.862 393.175 262.999 393.849 253.567C394.388 246.022 363.084 244.136 347.365 244.136Z" fill="#60CAC8"/>
<path d="M411.421 418.313C344.727 394.734 319.801 323.324 313.738 304.461C308.348 262.962 330.074 244.809 347.365 244.136C363.084 244.136 394.388 246.022 393.849 253.567C393.175 262.999 393.175 345.862 414.059 386.282C434.927 426.672 419.473 421.322 401.974 415.265M411.421 418.313L401.974 415.265M411.421 418.313C411.435 418.318 401.96 415.26 401.974 415.265" stroke="#173441" stroke-width="14"/>
<path d="M749.931 244.038C767.222 244.712 798.436 259.802 793.047 301.301C786.983 320.164 762.057 391.574 695.363 415.153L695.322 415.167C677.823 421.224 662.369 426.574 683.237 386.185C704.121 345.764 704.121 262.901 703.447 253.469C702.908 245.924 734.212 244.038 749.931 244.038Z" fill="#60CAC8"/>
<path d="M695.363 415.153C762.057 391.574 786.983 320.164 793.047 301.301C798.436 259.802 767.222 244.712 749.931 244.038C734.212 244.038 702.908 245.924 703.447 253.469C704.121 262.901 704.121 345.764 683.237 386.185C662.369 426.574 677.823 421.224 695.322 415.167M695.363 415.153L695.322 415.167M695.363 415.153C695.349 415.158 695.336 415.162 695.322 415.167" stroke="#173441" stroke-width="14"/>
<path d="M758.758 72.9227C758.758 72.9227 745.433 60.7492 736.579 54.7332C731.821 51.4999 726.786 48.3289 721.705 45.2986C706.229 36.068 690.228 29.401 680.5 25C614.479 5.46484 536.443 1.51107 487.264 17.005C468.879 22.1359 452.041 29.327 436.738 37.8384C435.834 38.341 434.936 38.8482 434.043 39.3598C424.701 44.7132 415.944 50.5538 407.77 56.7073C399.807 62.7014 392.398 68.9924 385.538 75.4188C361.814 97.6456 344.67 121.494 333.99 140.291C332.11 143.601 330.429 146.755 328.949 149.716C314.128 182.053 304.143 217.5 304.143 249.525C304.143 314.5 319.518 346.431 319.518 346.431C391.295 283.008 454.79 198.138 473.84 162.234C474.267 161.43 475.457 161.606 475.713 162.48C502.363 253.633 567.082 300.683 564.064 280.417C559.445 249.406 586.276 185.653 598.353 156.88C598.668 156.13 599.702 156.094 600.133 156.784C676.137 278.658 776.392 307.428 802.547 321.511C802.547 321.511 809.301 313.44 811.978 307.364C854 212 788 90.5 758.758 72.9227Z" fill="#60CAC8" stroke="#173441" stroke-width="14"/>
<path d="M225.22 776.245C225.22 780.961 218.483 785.003 218.483 785.003C201.192 790.168 163.009 811.949 164.589 857.76C166.61 916.371 219.157 934.56 235.325 935.234H859.154C881.161 933.886 929.891 916.898 929.891 859.108C929.891 791.066 863 780 847.702 780.961C844 780.961 835.845 782.039 831.533 772.877C826.144 761.424 831.533 725.045 774.27 690.014C739.239 668.583 695.45 675.193 674.566 682.603C670.299 684.849 660.823 687.05 657.05 677.888C652.334 666.435 622.018 588.288 519.619 584.246C417.219 580.204 376.125 667.783 374.777 675.867C373.43 683.951 368.714 683.951 363.325 683.951H363.325C357.935 683.951 339.746 668.456 290.567 687.319C251.224 702.41 229.936 738.519 225.22 776.245Z" fill="white" stroke="black" stroke-width="14"/>
</svg>
